<svg xmlns="http://www.w3.org/2000/svg" viewBox="0 0 460 460" width="460" height="460" role="img" aria-label="dot-matrix portrait"><circle cx="195.0" cy="35.0" r="0.88" fill="#39d353"/><circle cx="205.0" cy="35.0" r="1.08" fill="#39d353"/><circle cx="215.0" cy="35.0" r="1.06" fill="#39d353"/><circle cx="225.0" cy="35.0" r="1.08" fill="#39d353"/><circle cx="235.0" cy="35.0" r="1.08" fill="#39d353"/><circle cx="245.0" cy="35.0" r="1.06" fill="#39d353"/><circle cx="255.0" cy="35.0" r="1.08" fill="#39d353"/><circle cx="265.0" cy="35.0" r="0.97" fill="#39d353"/><circle cx="195.0" cy="45.0" r="4.74" fill="#39d353"/><circle cx="205.0" cy="45.0" r="5.75" fill="#39d353"/><circle cx="215.0" cy="45.0" r="5.75" fill="#39d353"/><circle cx="225.0" cy="45.0" r="5.75" fill="#39d353"/><circle cx="235.0" cy="45.0" r="5.75" fill="#39d353"/><circle cx="245.0" cy="45.0" r="5.75" fill="#39d353"/><circle cx="255.0" cy="45.0" r="5.75" fill="#39d353"/><circle cx="265.0" cy="45.0" r="5.21" fill="#39d353"/><circle cx="195.0" cy="55.0" r="4.67" fill="#39d353"/><circle cx="205.0" cy="55.0" r="5.73" fill="#39d353"/><circle cx="215.0" cy="55.0" r="5.68" fill="#39d353"/><circle cx="225.0" cy="55.0" r="5.73" fill="#39d353"/><circle cx="235.0" cy="55.0" r="5.73" fill="#39d353"/><circle cx="245.0" cy="55.0" r="5.68" fill="#39d353"/><circle cx="255.0" cy="55.0" r="5.73" fill="#39d353"/><circle cx="265.0" cy="55.0" r="5.14" fill="#39d353"/><circle cx="195.0" cy="65.0" r="4.67" fill="#39d353"/><circle cx="205.0" cy="65.0" r="5.75" fill="#39d353"/><circle cx="215.0" cy="65.0" r="5.70" fill="#39d353"/><circle cx="225.0" cy="65.0" r="5.75" fill="#39d353"/><circle cx="235.0" cy="65.0" r="5.75" fill="#39d353"/><circle cx="245.0" cy="65.0" r="5.70" fill="#39d353"/><circle cx="255.0" cy="65.0" r="5.75" fill="#39d353"/><circle cx="265.0" cy="65.0" r="5.14" fill="#39d353"/><circle cx="195.0" cy="75.0" r="4.67" fill="#39d353"/><circle cx="205.0" cy="75.0" r="5.75" fill="#39d353"/><circle cx="215.0" cy="75.0" r="5.70" fill="#39d353"/><circle cx="225.0" cy="75.0" r="5.75" fill="#39d353"/><circle cx="235.0" cy="75.0" r="5.75" fill="#39d353"/><circle cx="245.0" cy="75.0" r="5.70" fill="#39d353"/><circle cx="255.0" cy="75.0" r="5.75" fill="#39d353"/><circle cx="265.0" cy="75.0" r="5.14" fill="#39d353"/><circle cx="195.0" cy="85.0" r="4.67" fill="#39d353"/><circle cx="205.0" cy="85.0" r="5.75" fill="#39d353"/><circle cx="215.0" cy="85.0" r="5.70" fill="#39d353"/><circle cx="225.0" cy="85.0" r="5.75" fill="#39d353"/><circle cx="235.0" cy="85.0" r="5.75" fill="#39d353"/><circle cx="245.0" cy="85.0" r="5.70" fill="#39d353"/><circle cx="255.0" cy="85.0" r="5.75" fill="#39d353"/><circle cx="265.0" cy="85.0" r="5.14" fill="#39d353"/><circle cx="195.0" cy="95.0" r="4.60" fill="#39d353"/><circle cx="205.0" cy="95.0" r="5.66" fill="#39d353"/><circle cx="215.0" cy="95.0" r="5.61" fill="#39d353"/><circle cx="225.0" cy="95.0" r="5.66" fill="#39d353"/><circle cx="235.0" cy="95.0" r="5.66" fill="#39d353"/><circle cx="245.0" cy="95.0" r="5.61" fill="#39d353"/><circle cx="255.0" cy="95.0" r="5.66" fill="#39d353"/><circle cx="265.0" cy="95.0" r="5.05" fill="#39d353"/><circle cx="195.0" cy="105.0" r="4.98" fill="#39d353"/><circle cx="205.0" cy="105.0" r="5.75" fill="#39d353"/><circle cx="215.0" cy="105.0" r="5.75" fill="#39d353"/><circle cx="225.0" cy="105.0" r="5.75" fill="#39d353"/><circle cx="235.0" cy="105.0" r="5.75" fill="#39d353"/><circle cx="245.0" cy="105.0" r="5.75" fill="#39d353"/><circle cx="255.0" cy="105.0" r="5.75" fill="#39d353"/><circle cx="265.0" cy="105.0" r="5.50" fill="#39d353"/><circle cx="195.0" cy="115.0" r="2.84" fill="#39d353"/><circle cx="205.0" cy="115.0" r="3.50" fill="#39d353"/><circle cx="215.0" cy="115.0" r="3.47" fill="#39d353"/><circle cx="225.0" cy="115.0" r="3.50" fill="#39d353"/><circle cx="235.0" cy="115.0" r="3.50" fill="#39d353"/><circle cx="245.0" cy="115.0" r="3.47" fill="#39d353"/><circle cx="255.0" cy="115.0" r="3.50" fill="#39d353"/><circle cx="265.0" cy="115.0" r="3.13" fill="#39d353"/><circle cx="195.0" cy="195.0" r="3.79" fill="#39d353"/><circle cx="205.0" cy="195.0" r="4.67" fill="#39d353"/><circle cx="215.0" cy="195.0" r="4.65" fill="#39d353"/><circle cx="225.0" cy="195.0" r="4.67" fill="#39d353"/><circle cx="235.0" cy="195.0" r="4.67" fill="#39d353"/><circle cx="245.0" cy="195.0" r="4.65" fill="#39d353"/><circle cx="255.0" cy="195.0" r="4.67" fill="#39d353"/><circle cx="265.0" cy="195.0" r="4.17" fill="#39d353"/><circle cx="195.0" cy="205.0" r="4.87" fill="#39d353"/><circle cx="205.0" cy="205.0" r="5.75" fill="#39d353"/><circle cx="215.0" cy="205.0" r="5.75" fill="#39d353"/><circle cx="225.0" cy="205.0" r="5.75" fill="#39d353"/><circle cx="235.0" cy="205.0" r="5.75" fill="#39d353"/><circle cx="245.0" cy="205.0" r="5.75" fill="#39d353"/><circle cx="255.0" cy="205.0" r="5.75" fill="#39d353"/><circle cx="265.0" cy="205.0" r="5.34" fill="#39d353"/><circle cx="195.0" cy="215.0" r="4.62" fill="#39d353"/><circle cx="205.0" cy="215.0" r="5.70" fill="#39d353"/><circle cx="215.0" cy="215.0" r="5.66" fill="#39d353"/><circle cx="225.0" cy="215.0" r="5.70" fill="#39d353"/><circle cx="235.0" cy="215.0" r="5.70" fill="#39d353"/><circle cx="245.0" cy="215.0" r="5.66" fill="#39d353"/><circle cx="255.0" cy="215.0" r="5.70" fill="#39d353"/><circle cx="265.0" cy="215.0" r="5.10" fill="#39d353"/><circle cx="195.0" cy="225.0" r="4.67" fill="#39d353"/><circle cx="205.0" cy="225.0" r="5.75" fill="#39d353"/><circle cx="215.0" cy="225.0" r="5.70" fill="#39d353"/><circle cx="225.0" cy="225.0" r="5.75" fill="#39d353"/><circle cx="235.0" cy="225.0" r="5.75" fill="#39d353"/><circle cx="245.0" cy="225.0" r="5.70" fill="#39d353"/><circle cx="255.0" cy="225.0" r="5.75" fill="#39d353"/><circle cx="265.0" cy="225.0" r="5.14" fill="#39d353"/><circle cx="195.0" cy="235.0" r="4.67" fill="#39d353"/><circle cx="205.0" cy="235.0" r="5.75" fill="#39d353"/><circle cx="215.0" cy="235.0" r="5.70" fill="#39d353"/><circle cx="225.0" cy="235.0" r="5.75" fill="#39d353"/><circle cx="235.0" cy="235.0" r="5.75" fill="#39d353"/><circle cx="245.0" cy="235.0" r="5.70" fill="#39d353"/><circle cx="255.0" cy="235.0" r="5.75" fill="#39d353"/><circle cx="265.0" cy="235.0" r="5.14" fill="#39d353"/><circle cx="195.0" cy="245.0" r="4.67" fill="#39d353"/><circle cx="205.0" cy="245.0" r="5.75" fill="#39d353"/><circle cx="215.0" cy="245.0" r="5.70" fill="#39d353"/><circle cx="225.0" cy="245.0" r="5.75" fill="#39d353"/><circle cx="235.0" cy="245.0" r="5.75" fill="#39d353"/><circle cx="245.0" cy="245.0" r="5.70" fill="#39d353"/><circle cx="255.0" cy="245.0" r="5.75" fill="#39d353"/><circle cx="265.0" cy="245.0" r="5.14" fill="#39d353"/><circle cx="195.0" cy="255.0" r="4.67" fill="#39d353"/><circle cx="205.0" cy="255.0" r="5.75" fill="#39d353"/><circle cx="215.0" cy="255.0" r="5.70" fill="#39d353"/><circle cx="225.0" cy="255.0" r="5.75" fill="#39d353"/><circle cx="235.0" cy="255.0" r="5.75" fill="#39d353"/><circle cx="245.0" cy="255.0" r="5.70" fill="#39d353"/><circle cx="255.0" cy="255.0" r="5.75" fill="#39d353"/><circle cx="265.0" cy="255.0" r="5.14" fill="#39d353"/><circle cx="195.0" cy="265.0" r="4.67" fill="#39d353"/><circle cx="205.0" cy="265.0" r="5.75" fill="#39d353"/><circle cx="215.0" cy="265.0" r="5.70" fill="#39d353"/><circle cx="225.0" cy="265.0" r="5.75" fill="#39d353"/><circle cx="235.0" cy="265.0" r="5.75" fill="#39d353"/><circle cx="245.0" cy="265.0" r="5.70" fill="#39d353"/><circle cx="255.0" cy="265.0" r="5.75" fill="#39d353"/><circle cx="265.0" cy="265.0" r="5.14" fill="#39d353"/><circle cx="195.0" cy="275.0" r="4.67" fill="#39d353"/><circle cx="205.0" cy="275.0" r="5.75" fill="#39d353"/><circle cx="215.0" cy="275.0" r="5.70" fill="#39d353"/><circle cx="225.0" cy="275.0" r="5.75" fill="#39d353"/><circle cx="235.0" cy="275.0" r="5.75" fill="#39d353"/><circle cx="245.0" cy="275.0" r="5.70" fill="#39d353"/><circle cx="255.0" cy="275.0" r="5.75" fill="#39d353"/><circle cx="265.0" cy="275.0" r="5.14" fill="#39d353"/><circle cx="195.0" cy="285.0" r="4.67" fill="#39d353"/><circle cx="205.0" cy="285.0" r="5.75" fill="#39d353"/><circle cx="215.0" cy="285.0" r="5.70" fill="#39d353"/><circle cx="225.0" cy="285.0" r="5.75" fill="#39d353"/><circle cx="235.0" cy="285.0" r="5.75" fill="#39d353"/><circle cx="245.0" cy="285.0" r="5.70" fill="#39d353"/><circle cx="255.0" cy="285.0" r="5.75" fill="#39d353"/><circle cx="265.0" cy="285.0" r="5.14" fill="#39d353"/><circle cx="195.0" cy="295.0" r="4.67" fill="#39d353"/><circle cx="205.0" cy="295.0" r="5.75" fill="#39d353"/><circle cx="215.0" cy="295.0" r="5.70" fill="#39d353"/><circle cx="225.0" cy="295.0" r="5.75" fill="#39d353"/><circle cx="235.0" cy="295.0" r="5.75" fill="#39d353"/><circle cx="245.0" cy="295.0" r="5.70" fill="#39d353"/><circle cx="255.0" cy="295.0" r="5.75" fill="#39d353"/><circle cx="265.0" cy="295.0" r="5.14" fill="#39d353"/><circle cx="195.0" cy="305.0" r="4.67" fill="#39d353"/><circle cx="205.0" cy="305.0" r="5.75" fill="#39d353"/><circle cx="215.0" cy="305.0" r="5.70" fill="#39d353"/><circle cx="225.0" cy="305.0" r="5.75" fill="#39d353"/><circle cx="235.0" cy="305.0" r="5.75" fill="#39d353"/><circle cx="245.0" cy="305.0" r="5.70" fill="#39d353"/><circle cx="255.0" cy="305.0" r="5.75" fill="#39d353"/><circle cx="265.0" cy="305.0" r="5.14" fill="#39d353"/><circle cx="195.0" cy="315.0" r="4.67" fill="#39d353"/><circle cx="205.0" cy="315.0" r="5.75" fill="#39d353"/><circle cx="215.0" cy="315.0" r="5.70" fill="#39d353"/><circle cx="225.0" cy="315.0" r="5.75" fill="#39d353"/><circle cx="235.0" cy="315.0" r="5.75" fill="#39d353"/><circle cx="245.0" cy="315.0" r="5.70" fill="#39d353"/><circle cx="255.0" cy="315.0" r="5.75" fill="#39d353"/><circle cx="265.0" cy="315.0" r="5.14" fill="#39d353"/><circle cx="195.0" cy="325.0" r="4.69" fill="#39d353"/><circle cx="205.0" cy="325.0" r="5.75" fill="#39d353"/><circle cx="215.0" cy="325.0" r="5.70" fill="#39d353"/><circle cx="225.0" cy="325.0" r="5.75" fill="#39d353"/><circle cx="235.0" cy="325.0" r="5.75" fill="#39d353"/><circle cx="245.0" cy="325.0" r="5.70" fill="#39d353"/><circle cx="255.0" cy="325.0" r="5.75" fill="#39d353"/><circle cx="265.0" cy="325.0" r="5.14" fill="#39d353"/><circle cx="195.0" cy="335.0" r="4.60" fill="#39d353"/><circle cx="205.0" cy="335.0" r="5.75" fill="#39d353"/><circle cx="215.0" cy="335.0" r="5.70" fill="#39d353"/><circle cx="225.0" cy="335.0" r="5.75" fill="#39d353"/><circle cx="235.0" cy="335.0" r="5.75" fill="#39d353"/><circle cx="245.0" cy="335.0" r="5.70" fill="#39d353"/><circle cx="255.0" cy="335.0" r="5.75" fill="#39d353"/><circle cx="265.0" cy="335.0" r="5.10" fill="#39d353"/><circle cx="35.0" cy="345.0" r="0.54" fill="#39d353"/><circle cx="45.0" cy="345.0" r="2.86" fill="#39d353"/><circle cx="55.0" cy="345.0" r="2.86" fill="#39d353"/><circle cx="65.0" cy="345.0" r="2.86" fill="#39d353"/><circle cx="75.0" cy="345.0" r="2.86" fill="#39d353"/><circle cx="85.0" cy="345.0" r="2.86" fill="#39d353"/><circle cx="95.0" cy="345.0" r="2.86" fill="#39d353"/><circle cx="105.0" cy="345.0" r="2.86" fill="#39d353"/><circle cx="115.0" cy="345.0" r="2.86" fill="#39d353"/><circle cx="125.0" cy="345.0" r="2.86" fill="#39d353"/><circle cx="135.0" cy="345.0" r="2.86" fill="#39d353"/><circle cx="145.0" cy="345.0" r="2.86" fill="#39d353"/><circle cx="155.0" cy="345.0" r="2.86" fill="#39d353"/><circle cx="165.0" cy="345.0" r="2.86" fill="#39d353"/><circle cx="175.0" cy="345.0" r="2.89" fill="#39d353"/><circle cx="185.0" cy="345.0" r="2.86" fill="#39d353"/><circle cx="195.0" cy="345.0" r="5.21" fill="#39d353"/><circle cx="205.0" cy="345.0" r="5.75" fill="#39d353"/><circle cx="215.0" cy="345.0" r="5.73" fill="#39d353"/><circle cx="225.0" cy="345.0" r="5.75" fill="#39d353"/><circle cx="235.0" cy="345.0" r="5.75" fill="#39d353"/><circle cx="245.0" cy="345.0" r="5.73" fill="#39d353"/><circle cx="255.0" cy="345.0" r="5.75" fill="#39d353"/><circle cx="265.0" cy="345.0" r="5.43" fill="#39d353"/><circle cx="275.0" cy="345.0" r="2.98" fill="#39d353"/><circle cx="285.0" cy="345.0" r="2.86" fill="#39d353"/><circle cx="295.0" cy="345.0" r="2.89" fill="#39d353"/><circle cx="305.0" cy="345.0" r="2.86" fill="#39d353"/><circle cx="315.0" cy="345.0" r="2.86" fill="#39d353"/><circle cx="325.0" cy="345.0" r="2.86" fill="#39d353"/><circle cx="335.0" cy="345.0" r="2.86" fill="#39d353"/><circle cx="345.0" cy="345.0" r="2.86" fill="#39d353"/><circle cx="355.0" cy="345.0" r="2.86" fill="#39d353"/><circle cx="365.0" cy="345.0" r="2.86" fill="#39d353"/><circle cx="375.0" cy="345.0" r="2.86" fill="#39d353"/><circle cx="385.0" cy="345.0" r="2.86" fill="#39d353"/><circle cx="395.0" cy="345.0" r="2.86" fill="#39d353"/><circle cx="405.0" cy="345.0" r="2.84" fill="#39d353"/><circle cx="415.0" cy="345.0" r="2.86" fill="#39d353"/><circle cx="425.0" cy="345.0" r="0.81" fill="#39d353"/><circle cx="35.0" cy="355.0" r="1.17" fill="#39d353"/><circle cx="45.0" cy="355.0" r="5.75" fill="#39d353"/><circle cx="55.0" cy="355.0" r="5.75" fill="#39d353"/><circle cx="65.0" cy="355.0" r="5.75" fill="#39d353"/><circle cx="75.0" cy="355.0" r="5.75" fill="#39d353"/><circle cx="85.0" cy="355.0" r="5.75" fill="#39d353"/><circle cx="95.0" cy="355.0" r="5.75" fill="#39d353"/><circle cx="105.0" cy="355.0" r="5.75" fill="#39d353"/><circle cx="115.0" cy="355.0" r="5.75" fill="#39d353"/><circle cx="125.0" cy="355.0" r="5.75" fill="#39d353"/><circle cx="135.0" cy="355.0" r="5.75" fill="#39d353"/><circle cx="145.0" cy="355.0" r="5.75" fill="#39d353"/><circle cx="155.0" cy="355.0" r="5.75" fill="#39d353"/><circle cx="165.0" cy="355.0" r="5.75" fill="#39d353"/><circle cx="175.0" cy="355.0" r="5.75" fill="#39d353"/><circle cx="185.0" cy="355.0" r="5.75" fill="#39d353"/><circle cx="195.0" cy="355.0" r="5.75" fill="#39d353"/><circle cx="205.0" cy="355.0" r="5.75" fill="#39d353"/><circle cx="215.0" cy="355.0" r="5.75" fill="#39d353"/><circle cx="225.0" cy="355.0" r="5.75" fill="#39d353"/><circle cx="235.0" cy="355.0" r="5.75" fill="#39d353"/><circle cx="245.0" cy="355.0" r="5.75" fill="#39d353"/><circle cx="255.0" cy="355.0" r="5.75" fill="#39d353"/><circle cx="265.0" cy="355.0" r="5.75" fill="#39d353"/><circle cx="275.0" cy="355.0" r="5.75" fill="#39d353"/><circle cx="285.0" cy="355.0" r="5.75" fill="#39d353"/><circle cx="295.0" cy="355.0" r="5.75" fill="#39d353"/><circle cx="305.0" cy="355.0" r="5.75" fill="#39d353"/><circle cx="315.0" cy="355.0" r="5.75" fill="#39d353"/><circle cx="325.0" cy="355.0" r="5.75" fill="#39d353"/><circle cx="335.0" cy="355.0" r="5.75" fill="#39d353"/><circle cx="345.0" cy="355.0" r="5.75" fill="#39d353"/><circle cx="355.0" cy="355.0" r="5.75" fill="#39d353"/><circle cx="365.0" cy="355.0" r="5.75" fill="#39d353"/><circle cx="375.0" cy="355.0" r="5.75" fill="#39d353"/><circle cx="385.0" cy="355.0" r="5.75" fill="#39d353"/><circle cx="395.0" cy="355.0" r="5.75" fill="#39d353"/><circle cx="405.0" cy="355.0" r="5.75" fill="#39d353"/><circle cx="415.0" cy="355.0" r="5.75" fill="#39d353"/><circle cx="425.0" cy="355.0" r="1.74" fill="#39d353"/><circle cx="35.0" cy="365.0" r="1.06" fill="#39d353"/><circle cx="45.0" cy="365.0" r="5.66" fill="#39d353"/><circle cx="55.0" cy="365.0" r="5.64" fill="#39d353"/><circle cx="65.0" cy="365.0" r="5.66" fill="#39d353"/><circle cx="75.0" cy="365.0" r="5.66" fill="#39d353"/><circle cx="85.0" cy="365.0" r="5.66" fill="#39d353"/><circle cx="95.0" cy="365.0" r="5.66" fill="#39d353"/><circle cx="105.0" cy="365.0" r="5.66" fill="#39d353"/><circle cx="115.0" cy="365.0" r="5.66" fill="#39d353"/><circle cx="125.0" cy="365.0" r="5.66" fill="#39d353"/><circle cx="135.0" cy="365.0" r="5.66" fill="#39d353"/><circle cx="145.0" cy="365.0" r="5.66" fill="#39d353"/><circle cx="155.0" cy="365.0" r="5.66" fill="#39d353"/><circle cx="165.0" cy="365.0" r="5.66" fill="#39d353"/><circle cx="175.0" cy="365.0" r="5.66" fill="#39d353"/><circle cx="185.0" cy="365.0" r="5.66" fill="#39d353"/><circle cx="195.0" cy="365.0" r="5.73" fill="#39d353"/><circle cx="205.0" cy="365.0" r="5.75" fill="#39d353"/><circle cx="215.0" cy="365.0" r="5.75" fill="#39d353"/><circle cx="225.0" cy="365.0" r="5.75" fill="#39d353"/><circle cx="235.0" cy="365.0" r="5.75" fill="#39d353"/><circle cx="245.0" cy="365.0" r="5.75" fill="#39d353"/><circle cx="255.0" cy="365.0" r="5.75" fill="#39d353"/><circle cx="265.0" cy="365.0" r="5.75" fill="#39d353"/><circle cx="275.0" cy="365.0" r="5.66" fill="#39d353"/><circle cx="285.0" cy="365.0" r="5.66" fill="#39d353"/><circle cx="295.0" cy="365.0" r="5.66" fill="#39d353"/><circle cx="305.0" cy="365.0" r="5.66" fill="#39d353"/><circle cx="315.0" cy="365.0" r="5.66" fill="#39d353"/><circle cx="325.0" cy="365.0" r="5.66" fill="#39d353"/><circle cx="335.0" cy="365.0" r="5.66" fill="#39d353"/><circle cx="345.0" cy="365.0" r="5.66" fill="#39d353"/><circle cx="355.0" cy="365.0" r="5.66" fill="#39d353"/><circle cx="365.0" cy="365.0" r="5.66" fill="#39d353"/><circle cx="375.0" cy="365.0" r="5.66" fill="#39d353"/><circle cx="385.0" cy="365.0" r="5.66" fill="#39d353"/><circle cx="395.0" cy="365.0" r="5.66" fill="#39d353"/><circle cx="405.0" cy="365.0" r="5.59" fill="#39d353"/><circle cx="415.0" cy="365.0" r="5.66" fill="#39d353"/><circle cx="425.0" cy="365.0" r="1.60" fill="#39d353"/><circle cx="35.0" cy="375.0" r="1.08" fill="#39d353"/><circle cx="45.0" cy="375.0" r="5.75" fill="#39d353"/><circle cx="55.0" cy="375.0" r="5.73" fill="#39d353"/><circle cx="65.0" cy="375.0" r="5.75" fill="#39d353"/><circle cx="75.0" cy="375.0" r="5.75" fill="#39d353"/><circle cx="85.0" cy="375.0" r="5.75" fill="#39d353"/><circle cx="95.0" cy="375.0" r="5.75" fill="#39d353"/><circle cx="105.0" cy="375.0" r="5.75" fill="#39d353"/><circle cx="115.0" cy="375.0" r="5.75" fill="#39d353"/><circle cx="125.0" cy="375.0" r="5.75" fill="#39d353"/><circle cx="135.0" cy="375.0" r="5.75" fill="#39d353"/><circle cx="145.0" cy="375.0" r="5.75" fill="#39d353"/><circle cx="155.0" cy="375.0" r="5.75" fill="#39d353"/><circle cx="165.0" cy="375.0" r="5.75" fill="#39d353"/><circle cx="175.0" cy="375.0" r="5.75" fill="#39d353"/><circle cx="185.0" cy="375.0" r="5.75" fill="#39d353"/><circle cx="195.0" cy="375.0" r="5.75" fill="#39d353"/><circle cx="205.0" cy="375.0" r="5.75" fill="#39d353"/><circle cx="215.0" cy="375.0" r="5.75" fill="#39d353"/><circle cx="225.0" cy="375.0" r="5.75" fill="#39d353"/><circle cx="235.0" cy="375.0" r="5.75" fill="#39d353"/><circle cx="245.0" cy="375.0" r="5.75" fill="#39d353"/><circle cx="255.0" cy="375.0" r="5.75" fill="#39d353"/><circle cx="265.0" cy="375.0" r="5.75" fill="#39d353"/><circle cx="275.0" cy="375.0" r="5.75" fill="#39d353"/><circle cx="285.0" cy="375.0" r="5.75" fill="#39d353"/><circle cx="295.0" cy="375.0" r="5.75" fill="#39d353"/><circle cx="305.0" cy="375.0" r="5.75" fill="#39d353"/><circle cx="315.0" cy="375.0" r="5.75" fill="#39d353"/><circle cx="325.0" cy="375.0" r="5.75" fill="#39d353"/><circle cx="335.0" cy="375.0" r="5.75" fill="#39d353"/><circle cx="345.0" cy="375.0" r="5.75" fill="#39d353"/><circle cx="355.0" cy="375.0" r="5.75" fill="#39d353"/><circle cx="365.0" cy="375.0" r="5.75" fill="#39d353"/><circle cx="375.0" cy="375.0" r="5.75" fill="#39d353"/><circle cx="385.0" cy="375.0" r="5.75" fill="#39d353"/><circle cx="395.0" cy="375.0" r="5.75" fill="#39d353"/><circle cx="405.0" cy="375.0" r="5.68" fill="#39d353"/><circle cx="415.0" cy="375.0" r="5.75" fill="#39d353"/><circle cx="425.0" cy="375.0" r="1.62" fill="#39d353"/><circle cx="35.0" cy="385.0" r="1.08" fill="#39d353"/><circle cx="45.0" cy="385.0" r="5.75" fill="#39d353"/><circle cx="55.0" cy="385.0" r="5.73" fill="#39d353"/><circle cx="65.0" cy="385.0" r="5.75" fill="#39d353"/><circle cx="75.0" cy="385.0" r="5.75" fill="#39d353"/><circle cx="85.0" cy="385.0" r="5.75" fill="#39d353"/><circle cx="95.0" cy="385.0" r="5.75" fill="#39d353"/><circle cx="105.0" cy="385.0" r="5.75" fill="#39d353"/><circle cx="115.0" cy="385.0" r="5.75" fill="#39d353"/><circle cx="125.0" cy="385.0" r="5.75" fill="#39d353"/><circle cx="135.0" cy="385.0" r="5.75" fill="#39d353"/><circle cx="145.0" cy="385.0" r="5.75" fill="#39d353"/><circle cx="155.0" cy="385.0" r="5.75" fill="#39d353"/><circle cx="165.0" cy="385.0" r="5.75" fill="#39d353"/><circle cx="175.0" cy="385.0" r="5.75" fill="#39d353"/><circle cx="185.0" cy="385.0" r="5.75" fill="#39d353"/><circle cx="195.0" cy="385.0" r="5.75" fill="#39d353"/><circle cx="205.0" cy="385.0" r="5.75" fill="#39d353"/><circle cx="215.0" cy="385.0" r="5.75" fill="#39d353"/><circle cx="225.0" cy="385.0" r="5.75" fill="#39d353"/><circle cx="235.0" cy="385.0" r="5.75" fill="#39d353"/><circle cx="245.0" cy="385.0" r="5.75" fill="#39d353"/><circle cx="255.0" cy="385.0" r="5.75" fill="#39d353"/><circle cx="265.0" cy="385.0" r="5.75" fill="#39d353"/><circle cx="275.0" cy="385.0" r="5.75" fill="#39d353"/><circle cx="285.0" cy="385.0" r="5.75" fill="#39d353"/><circle cx="295.0" cy="385.0" r="5.75" fill="#39d353"/><circle cx="305.0" cy="385.0" r="5.75" fill="#39d353"/><circle cx="315.0" cy="385.0" r="5.75" fill="#39d353"/><circle cx="325.0" cy="385.0" r="5.75" fill="#39d353"/><circle cx="335.0" cy="385.0" r="5.75" fill="#39d353"/><circle cx="345.0" cy="385.0" r="5.75" fill="#39d353"/><circle cx="355.0" cy="385.0" r="5.75" fill="#39d353"/><circle cx="365.0" cy="385.0" r="5.75" fill="#39d353"/><circle cx="375.0" cy="385.0" r="5.75" fill="#39d353"/><circle cx="385.0" cy="385.0" r="5.75" fill="#39d353"/><circle cx="395.0" cy="385.0" r="5.75" fill="#39d353"/><circle cx="405.0" cy="385.0" r="5.68" fill="#39d353"/><circle cx="415.0" cy="385.0" r="5.75" fill="#39d353"/><circle cx="425.0" cy="385.0" r="1.62" fill="#39d353"/><circle cx="35.0" cy="395.0" r="1.08" fill="#39d353"/><circle cx="45.0" cy="395.0" r="5.75" fill="#39d353"/><circle cx="55.0" cy="395.0" r="5.73" fill="#39d353"/><circle cx="65.0" cy="395.0" r="5.75" fill="#39d353"/><circle cx="75.0" cy="395.0" r="5.75" fill="#39d353"/><circle cx="85.0" cy="395.0" r="5.75" fill="#39d353"/><circle cx="95.0" cy="395.0" r="5.75" fill="#39d353"/><circle cx="105.0" cy="395.0" r="5.75" fill="#39d353"/><circle cx="115.0" cy="395.0" r="5.75" fill="#39d353"/><circle cx="125.0" cy="395.0" r="5.75" fill="#39d353"/><circle cx="135.0" cy="395.0" r="5.75" fill="#39d353"/><circle cx="145.0" cy="395.0" r="5.75" fill="#39d353"/><circle cx="155.0" cy="395.0" r="5.75" fill="#39d353"/><circle cx="165.0" cy="395.0" r="5.75" fill="#39d353"/><circle cx="175.0" cy="395.0" r="5.75" fill="#39d353"/><circle cx="185.0" cy="395.0" r="5.75" fill="#39d353"/><circle cx="195.0" cy="395.0" r="5.75" fill="#39d353"/><circle cx="205.0" cy="395.0" r="5.75" fill="#39d353"/><circle cx="215.0" cy="395.0" r="5.75" fill="#39d353"/><circle cx="225.0" cy="395.0" r="5.75" fill="#39d353"/><circle cx="235.0" cy="395.0" r="5.75" fill="#39d353"/><circle cx="245.0" cy="395.0" r="5.75" fill="#39d353"/><circle cx="255.0" cy="395.0" r="5.75" fill="#39d353"/><circle cx="265.0" cy="395.0" r="5.75" fill="#39d353"/><circle cx="275.0" cy="395.0" r="5.75" fill="#39d353"/><circle cx="285.0" cy="395.0" r="5.75" fill="#39d353"/><circle cx="295.0" cy="395.0" r="5.75" fill="#39d353"/><circle cx="305.0" cy="395.0" r="5.75" fill="#39d353"/><circle cx="315.0" cy="395.0" r="5.75" fill="#39d353"/><circle cx="325.0" cy="395.0" r="5.75" fill="#39d353"/><circle cx="335.0" cy="395.0" r="5.75" fill="#39d353"/><circle cx="345.0" cy="395.0" r="5.75" fill="#39d353"/><circle cx="355.0" cy="395.0" r="5.75" fill="#39d353"/><circle cx="365.0" cy="395.0" r="5.75" fill="#39d353"/><circle cx="375.0" cy="395.0" r="5.75" fill="#39d353"/><circle cx="385.0" cy="395.0" r="5.75" fill="#39d353"/><circle cx="395.0" cy="395.0" r="5.75" fill="#39d353"/><circle cx="405.0" cy="395.0" r="5.68" fill="#39d353"/><circle cx="415.0" cy="395.0" r="5.75" fill="#39d353"/><circle cx="425.0" cy="395.0" r="1.62" fill="#39d353"/><circle cx="35.0" cy="405.0" r="1.06" fill="#39d353"/><circle cx="45.0" cy="405.0" r="5.68" fill="#39d353"/><circle cx="55.0" cy="405.0" r="5.66" fill="#39d353"/><circle cx="65.0" cy="405.0" r="5.68" fill="#39d353"/><circle cx="75.0" cy="405.0" r="5.68" fill="#39d353"/><circle cx="85.0" cy="405.0" r="5.68" fill="#39d353"/><circle cx="95.0" cy="405.0" r="5.68" fill="#39d353"/><circle cx="105.0" cy="405.0" r="5.68" fill="#39d353"/><circle cx="115.0" cy="405.0" r="5.68" fill="#39d353"/><circle cx="125.0" cy="405.0" r="5.68" fill="#39d353"/><circle cx="135.0" cy="405.0" r="5.68" fill="#39d353"/><circle cx="145.0" cy="405.0" r="5.68" fill="#39d353"/><circle cx="155.0" cy="405.0" r="5.68" fill="#39d353"/><circle cx="165.0" cy="405.0" r="5.68" fill="#39d353"/><circle cx="175.0" cy="405.0" r="5.68" fill="#39d353"/><circle cx="185.0" cy="405.0" r="5.68" fill="#39d353"/><circle cx="195.0" cy="405.0" r="5.68" fill="#39d353"/><circle cx="205.0" cy="405.0" r="5.68" fill="#39d353"/><circle cx="215.0" cy="405.0" r="5.68" fill="#39d353"/><circle cx="225.0" cy="405.0" r="5.68" fill="#39d353"/><circle cx="235.0" cy="405.0" r="5.68" fill="#39d353"/><circle cx="245.0" cy="405.0" r="5.68" fill="#39d353"/><circle cx="255.0" cy="405.0" r="5.68" fill="#39d353"/><circle cx="265.0" cy="405.0" r="5.68" fill="#39d353"/><circle cx="275.0" cy="405.0" r="5.68" fill="#39d353"/><circle cx="285.0" cy="405.0" r="5.68" fill="#39d353"/><circle cx="295.0" cy="405.0" r="5.68" fill="#39d353"/><circle cx="305.0" cy="405.0" r="5.68" fill="#39d353"/><circle cx="315.0" cy="405.0" r="5.68" fill="#39d353"/><circle cx="325.0" cy="405.0" r="5.68" fill="#39d353"/><circle cx="335.0" cy="405.0" r="5.68" fill="#39d353"/><circle cx="345.0" cy="405.0" r="5.68" fill="#39d353"/><circle cx="355.0" cy="405.0" r="5.68" fill="#39d353"/><circle cx="365.0" cy="405.0" r="5.68" fill="#39d353"/><circle cx="375.0" cy="405.0" r="5.68" fill="#39d353"/><circle cx="385.0" cy="405.0" r="5.68" fill="#39d353"/><circle cx="395.0" cy="405.0" r="5.68" fill="#39d353"/><circle cx="405.0" cy="405.0" r="5.61" fill="#39d353"/><circle cx="415.0" cy="405.0" r="5.68" fill="#39d353"/><circle cx="425.0" cy="405.0" r="1.60" fill="#39d353"/><circle cx="35.0" cy="415.0" r="1.13" fill="#39d353"/><circle cx="45.0" cy="415.0" r="5.75" fill="#39d353"/><circle cx="55.0" cy="415.0" r="5.75" fill="#39d353"/><circle cx="65.0" cy="415.0" r="5.75" fill="#39d353"/><circle cx="75.0" cy="415.0" r="5.75" fill="#39d353"/><circle cx="85.0" cy="415.0" r="5.75" fill="#39d353"/><circle cx="95.0" cy="415.0" r="5.75" fill="#39d353"/><circle cx="105.0" cy="415.0" r="5.75" fill="#39d353"/><circle cx="115.0" cy="415.0" r="5.75" fill="#39d353"/><circle cx="125.0" cy="415.0" r="5.75" fill="#39d353"/><circle cx="135.0" cy="415.0" r="5.75" fill="#39d353"/><circle cx="145.0" cy="415.0" r="5.75" fill="#39d353"/><circle cx="155.0" cy="415.0" r="5.75" fill="#39d353"/><circle cx="165.0" cy="415.0" r="5.75" fill="#39d353"/><circle cx="175.0" cy="415.0" r="5.75" fill="#39d353"/><circle cx="185.0" cy="415.0" r="5.75" fill="#39d353"/><circle cx="195.0" cy="415.0" r="5.75" fill="#39d353"/><circle cx="205.0" cy="415.0" r="5.75" fill="#39d353"/><circle cx="215.0" cy="415.0" r="5.75" fill="#39d353"/><circle cx="225.0" cy="415.0" r="5.75" fill="#39d353"/><circle cx="235.0" cy="415.0" r="5.75" fill="#39d353"/><circle cx="245.0" cy="415.0" r="5.75" fill="#39d353"/><circle cx="255.0" cy="415.0" r="5.75" fill="#39d353"/><circle cx="265.0" cy="415.0" r="5.75" fill="#39d353"/><circle cx="275.0" cy="415.0" r="5.75" fill="#39d353"/><circle cx="285.0" cy="415.0" r="5.75" fill="#39d353"/><circle cx="295.0" cy="415.0" r="5.75" fill="#39d353"/><circle cx="305.0" cy="415.0" r="5.75" fill="#39d353"/><circle cx="315.0" cy="415.0" r="5.75" fill="#39d353"/><circle cx="325.0" cy="415.0" r="5.75" fill="#39d353"/><circle cx="335.0" cy="415.0" r="5.75" fill="#39d353"/><circle cx="345.0" cy="415.0" r="5.75" fill="#39d353"/><circle cx="355.0" cy="415.0" r="5.75" fill="#39d353"/><circle cx="365.0" cy="415.0" r="5.75" fill="#39d353"/><circle cx="375.0" cy="415.0" r="5.75" fill="#39d353"/><circle cx="385.0" cy="415.0" r="5.75" fill="#39d353"/><circle cx="395.0" cy="415.0" r="5.75" fill="#39d353"/><circle cx="405.0" cy="415.0" r="5.75" fill="#39d353"/><circle cx="415.0" cy="415.0" r="5.75" fill="#39d353"/><circle cx="425.0" cy="415.0" r="1.71" fill="#39d353"/><circle cx="45.0" cy="425.0" r="1.62" fill="#39d353"/><circle cx="55.0" cy="425.0" r="1.62" fill="#39d353"/><circle cx="65.0" cy="425.0" r="1.62" fill="#39d353"/><circle cx="75.0" cy="425.0" r="1.62" fill="#39d353"/><circle cx="85.0" cy="425.0" r="1.62" fill="#39d353"/><circle cx="95.0" cy="425.0" r="1.62" fill="#39d353"/><circle cx="105.0" cy="425.0" r="1.62" fill="#39d353"/><circle cx="115.0" cy="425.0" r="1.62" fill="#39d353"/><circle cx="125.0" cy="425.0" r="1.62" fill="#39d353"/><circle cx="135.0" cy="425.0" r="1.62" fill="#39d353"/><circle cx="145.0" cy="425.0" r="1.62" fill="#39d353"/><circle cx="155.0" cy="425.0" r="1.62" fill="#39d353"/><circle cx="165.0" cy="425.0" r="1.62" fill="#39d353"/><circle cx="175.0" cy="425.0" r="1.62" fill="#39d353"/><circle cx="185.0" cy="425.0" r="1.62" fill="#39d353"/><circle cx="195.0" cy="425.0" r="1.62" fill="#39d353"/><circle cx="205.0" cy="425.0" r="1.62" fill="#39d353"/><circle cx="215.0" cy="425.0" r="1.62" fill="#39d353"/><circle cx="225.0" cy="425.0" r="1.62" fill="#39d353"/><circle cx="235.0" cy="425.0" r="1.62" fill="#39d353"/><circle cx="245.0" cy="425.0" r="1.62" fill="#39d353"/><circle cx="255.0" cy="425.0" r="1.62" fill="#39d353"/><circle cx="265.0" cy="425.0" r="1.62" fill="#39d353"/><circle cx="275.0" cy="425.0" r="1.62" fill="#39d353"/><circle cx="285.0" cy="425.0" r="1.62" fill="#39d353"/><circle cx="295.0" cy="425.0" r="1.62" fill="#39d353"/><circle cx="305.0" cy="425.0" r="1.62" fill="#39d353"/><circle cx="315.0" cy="425.0" r="1.62" fill="#39d353"/><circle cx="325.0" cy="425.0" r="1.62" fill="#39d353"/><circle cx="335.0" cy="425.0" r="1.62" fill="#39d353"/><circle cx="345.0" cy="425.0" r="1.62" fill="#39d353"/><circle cx="355.0" cy="425.0" r="1.62" fill="#39d353"/><circle cx="365.0" cy="425.0" r="1.62" fill="#39d353"/><circle cx="375.0" cy="425.0" r="1.62" fill="#39d353"/><circle cx="385.0" cy="425.0" r="1.62" fill="#39d353"/><circle cx="395.0" cy="425.0" r="1.62" fill="#39d353"/><circle cx="405.0" cy="425.0" r="1.60" fill="#39d353"/><circle cx="415.0" cy="425.0" r="1.62" fill="#39d353"/><circle cx="425.0" cy="425.0" r="0.45" fill="#39d353"/></svg>